<mxfile host="" modified="2023-02-04T11:19:10.848Z" agent="5.0 (Windows NT 10.0; Win64; x64) AppleWebKit/537.36 (KHTML, like Gecko) Code/1.45.1 Chrome/78.0.3904.130 Electron/7.2.4 Safari/537.36" version="13.1.3" etag="vplOduYdR_JbmoFcf_aW" pages="4">
    <diagram id="RaTTPVC0k8meCuHwdyOm" name="SSAA">
        <mxGraphModel dx="1120" dy="792" grid="0" gridSize="10" guides="1" tooltips="1" connect="1" arrows="1" fold="1" page="1" pageScale="1" pageWidth="827" pageHeight="1169" background="none" math="0" shadow="0">
            <root>
                <mxCell id="0"/>
                <mxCell id="1" parent="0"/>
                <mxCell id="520" value="" style="rounded=0;whiteSpace=wrap;html=1;fontSize=16;fillColor=default;" parent="1" vertex="1">
                    <mxGeometry x="40" y="40" width="160" height="80" as="geometry"/>
                </mxCell>
                <mxCell id="487" value="" style="whiteSpace=wrap;html=1;aspect=fixed;fillColor=default;" parent="1" vertex="1">
                    <mxGeometry x="40" y="410" width="40" height="40" as="geometry"/>
                </mxCell>
                <mxCell id="488" value="" style="whiteSpace=wrap;html=1;aspect=fixed;fillColor=default;" parent="1" vertex="1">
                    <mxGeometry x="80" y="410" width="40" height="40" as="geometry"/>
                </mxCell>
                <mxCell id="489" value="" style="whiteSpace=wrap;html=1;aspect=fixed;fillColor=default;" parent="1" vertex="1">
                    <mxGeometry x="40" y="450" width="40" height="40" as="geometry"/>
                </mxCell>
                <mxCell id="490" value="" style="whiteSpace=wrap;html=1;aspect=fixed;fillColor=default;" parent="1" vertex="1">
                    <mxGeometry x="80" y="450" width="40" height="40" as="geometry"/>
                </mxCell>
                <mxCell id="493" value="" style="shape=waypoint;sketch=0;size=6;pointerEvents=1;points=[];fillColor=none;resizable=0;rotatable=0;perimeter=centerPerimeter;snapToPoint=1;fontSize=16;" parent="1" vertex="1">
                    <mxGeometry x="40" y="410" width="40" height="40" as="geometry"/>
                </mxCell>
                <mxCell id="494" value="" style="shape=waypoint;sketch=0;size=6;pointerEvents=1;points=[];fillColor=none;resizable=0;rotatable=0;perimeter=centerPerimeter;snapToPoint=1;fontSize=16;" parent="1" vertex="1">
                    <mxGeometry x="80" y="410" width="40" height="40" as="geometry"/>
                </mxCell>
                <mxCell id="495" value="" style="shape=waypoint;sketch=0;size=6;pointerEvents=1;points=[];fillColor=none;resizable=0;rotatable=0;perimeter=centerPerimeter;snapToPoint=1;fontSize=16;" parent="1" vertex="1">
                    <mxGeometry x="40" y="450" width="40" height="40" as="geometry"/>
                </mxCell>
                <mxCell id="496" value="" style="shape=waypoint;sketch=0;size=6;pointerEvents=1;points=[];fillColor=none;resizable=0;rotatable=0;perimeter=centerPerimeter;snapToPoint=1;fontSize=16;" parent="1" vertex="1">
                    <mxGeometry x="80" y="450" width="40" height="40" as="geometry"/>
                </mxCell>
                <mxCell id="503" value="" style="whiteSpace=wrap;html=1;aspect=fixed;fillColor=default;" parent="1" vertex="1">
                    <mxGeometry x="200" y="410" width="80" height="80" as="geometry"/>
                </mxCell>
                <mxCell id="504" value="" style="shape=waypoint;sketch=0;size=6;pointerEvents=1;points=[];fillColor=none;resizable=0;rotatable=0;perimeter=centerPerimeter;snapToPoint=1;fontSize=16;" parent="1" vertex="1">
                    <mxGeometry x="220" y="410" width="40" height="40" as="geometry"/>
                </mxCell>
                <mxCell id="505" value="" style="shape=waypoint;sketch=0;size=6;pointerEvents=1;points=[];fillColor=none;resizable=0;rotatable=0;perimeter=centerPerimeter;snapToPoint=1;fontSize=16;" parent="1" vertex="1">
                    <mxGeometry x="220" y="450" width="40" height="40" as="geometry"/>
                </mxCell>
                <mxCell id="510" value="" style="whiteSpace=wrap;html=1;aspect=fixed;fillColor=default;" parent="1" vertex="1">
                    <mxGeometry x="360" y="410" width="80" height="80" as="geometry"/>
                </mxCell>
                <mxCell id="511" value="" style="shape=waypoint;sketch=0;size=6;pointerEvents=1;points=[];fillColor=none;resizable=0;rotatable=0;perimeter=centerPerimeter;snapToPoint=1;fontSize=16;" parent="1" vertex="1">
                    <mxGeometry x="360" y="430" width="40" height="40" as="geometry"/>
                </mxCell>
                <mxCell id="512" value="" style="shape=waypoint;sketch=0;size=6;pointerEvents=1;points=[];fillColor=none;resizable=0;rotatable=0;perimeter=centerPerimeter;snapToPoint=1;fontSize=16;" parent="1" vertex="1">
                    <mxGeometry x="400" y="430" width="40" height="40" as="geometry"/>
                </mxCell>
                <mxCell id="514" value="1 x 2" style="text;html=1;resizable=0;autosize=1;align=center;verticalAlign=middle;points=[];fillColor=none;strokeColor=none;rounded=0;fontSize=16;" parent="1" vertex="1">
                    <mxGeometry x="215" y="500" width="50" height="20" as="geometry"/>
                </mxCell>
                <mxCell id="517" value="2 x 1" style="text;html=1;resizable=0;autosize=1;align=center;verticalAlign=middle;points=[];fillColor=none;strokeColor=none;rounded=0;fontSize=16;" parent="1" vertex="1">
                    <mxGeometry x="375" y="500" width="50" height="20" as="geometry"/>
                </mxCell>
                <mxCell id="518" value="2 x 1" style="text;html=1;resizable=0;autosize=1;align=center;verticalAlign=middle;points=[];fillColor=none;strokeColor=none;rounded=0;fontSize=16;" parent="1" vertex="1">
                    <mxGeometry x="54" y="499" width="50" height="20" as="geometry"/>
                </mxCell>
                <mxCell id="568" value="" style="whiteSpace=wrap;html=1;aspect=fixed;fontSize=16;fillColor=default;" parent="1" vertex="1">
                    <mxGeometry x="40" y="40" width="40" height="40" as="geometry"/>
                </mxCell>
                <mxCell id="569" value="" style="whiteSpace=wrap;html=1;aspect=fixed;fontSize=16;fillColor=default;" parent="1" vertex="1">
                    <mxGeometry x="40" y="80" width="40" height="40" as="geometry"/>
                </mxCell>
                <mxCell id="574" value="" style="whiteSpace=wrap;html=1;aspect=fixed;fontSize=16;fillColor=default;" parent="1" vertex="1">
                    <mxGeometry x="80" y="40" width="40" height="40" as="geometry"/>
                </mxCell>
                <mxCell id="575" value="" style="whiteSpace=wrap;html=1;aspect=fixed;fontSize=16;fillColor=default;" parent="1" vertex="1">
                    <mxGeometry x="80" y="80" width="40" height="40" as="geometry"/>
                </mxCell>
                <mxCell id="578" value="" style="whiteSpace=wrap;html=1;aspect=fixed;fontSize=16;fillColor=default;" parent="1" vertex="1">
                    <mxGeometry x="120" y="40" width="40" height="40" as="geometry"/>
                </mxCell>
                <mxCell id="579" value="" style="whiteSpace=wrap;html=1;aspect=fixed;fontSize=16;fillColor=default;" parent="1" vertex="1">
                    <mxGeometry x="120" y="80" width="40" height="40" as="geometry"/>
                </mxCell>
                <mxCell id="582" value="" style="whiteSpace=wrap;html=1;aspect=fixed;fontSize=16;fillColor=default;" parent="1" vertex="1">
                    <mxGeometry x="160" y="40" width="40" height="40" as="geometry"/>
                </mxCell>
                <mxCell id="583" value="" style="whiteSpace=wrap;html=1;aspect=fixed;fontSize=16;fillColor=default;" parent="1" vertex="1">
                    <mxGeometry x="160" y="80" width="40" height="40" as="geometry"/>
                </mxCell>
                <mxCell id="586" value="" style="whiteSpace=wrap;html=1;aspect=fixed;fontSize=16;fillColor=default;" parent="1" vertex="1">
                    <mxGeometry x="120" y="40" width="40" height="40" as="geometry"/>
                </mxCell>
                <mxCell id="587" value="" style="whiteSpace=wrap;html=1;aspect=fixed;fontSize=16;fillColor=default;" parent="1" vertex="1">
                    <mxGeometry x="120" y="80" width="40" height="40" as="geometry"/>
                </mxCell>
                <mxCell id="590" value="" style="whiteSpace=wrap;html=1;aspect=fixed;fontSize=16;fillColor=default;" parent="1" vertex="1">
                    <mxGeometry x="160" y="40" width="40" height="40" as="geometry"/>
                </mxCell>
                <mxCell id="591" value="" style="whiteSpace=wrap;html=1;aspect=fixed;fontSize=16;fillColor=default;" parent="1" vertex="1">
                    <mxGeometry x="160" y="80" width="40" height="40" as="geometry"/>
                </mxCell>
                <mxCell id="594" value="" style="whiteSpace=wrap;html=1;aspect=fixed;fontSize=16;fillColor=default;" parent="1" vertex="1">
                    <mxGeometry x="120" y="40" width="40" height="40" as="geometry"/>
                </mxCell>
                <mxCell id="595" value="" style="whiteSpace=wrap;html=1;aspect=fixed;fontSize=16;fillColor=default;" parent="1" vertex="1">
                    <mxGeometry x="120" y="80" width="40" height="40" as="geometry"/>
                </mxCell>
                <mxCell id="598" value="" style="whiteSpace=wrap;html=1;aspect=fixed;fontSize=16;fillColor=default;" parent="1" vertex="1">
                    <mxGeometry x="160" y="40" width="40" height="40" as="geometry"/>
                </mxCell>
                <mxCell id="599" value="" style="whiteSpace=wrap;html=1;aspect=fixed;fontSize=16;fillColor=default;" parent="1" vertex="1">
                    <mxGeometry x="160" y="80" width="40" height="40" as="geometry"/>
                </mxCell>
                <mxCell id="602" value="" style="whiteSpace=wrap;html=1;aspect=fixed;fontSize=16;fillColor=default;" parent="1" vertex="1">
                    <mxGeometry x="80" y="40" width="40" height="40" as="geometry"/>
                </mxCell>
                <mxCell id="603" value="" style="whiteSpace=wrap;html=1;aspect=fixed;fontSize=16;fillColor=default;" parent="1" vertex="1">
                    <mxGeometry x="80" y="80" width="40" height="40" as="geometry"/>
                </mxCell>
                <mxCell id="608" value="" style="whiteSpace=wrap;html=1;aspect=fixed;fontSize=16;fillColor=default;" parent="1" vertex="1">
                    <mxGeometry x="40" y="80" width="40" height="40" as="geometry"/>
                </mxCell>
                <mxCell id="637" value="" style="rounded=0;whiteSpace=wrap;html=1;fontSize=16;fillColor=default;" parent="1" vertex="1">
                    <mxGeometry x="320" y="40" width="160" height="80" as="geometry"/>
                </mxCell>
                <mxCell id="638" value="" style="whiteSpace=wrap;html=1;aspect=fixed;fontSize=16;fillColor=default;" parent="1" vertex="1">
                    <mxGeometry x="320" y="40" width="40" height="40" as="geometry"/>
                </mxCell>
                <mxCell id="639" value="" style="whiteSpace=wrap;html=1;aspect=fixed;fontSize=16;fillColor=default;" parent="1" vertex="1">
                    <mxGeometry x="320" y="80" width="40" height="40" as="geometry"/>
                </mxCell>
                <mxCell id="640" value="" style="whiteSpace=wrap;html=1;aspect=fixed;fontSize=16;fillColor=default;" parent="1" vertex="1">
                    <mxGeometry x="360" y="40" width="40" height="40" as="geometry"/>
                </mxCell>
                <mxCell id="641" value="" style="whiteSpace=wrap;html=1;aspect=fixed;fontSize=16;fillColor=default;" parent="1" vertex="1">
                    <mxGeometry x="360" y="80" width="40" height="40" as="geometry"/>
                </mxCell>
                <mxCell id="642" value="" style="whiteSpace=wrap;html=1;aspect=fixed;fontSize=16;fillColor=default;" parent="1" vertex="1">
                    <mxGeometry x="400" y="40" width="40" height="40" as="geometry"/>
                </mxCell>
                <mxCell id="643" value="" style="whiteSpace=wrap;html=1;aspect=fixed;fontSize=16;fillColor=default;" parent="1" vertex="1">
                    <mxGeometry x="400" y="80" width="40" height="40" as="geometry"/>
                </mxCell>
                <mxCell id="644" value="" style="whiteSpace=wrap;html=1;aspect=fixed;fontSize=16;fillColor=default;" parent="1" vertex="1">
                    <mxGeometry x="440" y="40" width="40" height="40" as="geometry"/>
                </mxCell>
                <mxCell id="645" value="" style="whiteSpace=wrap;html=1;aspect=fixed;fontSize=16;fillColor=default;" parent="1" vertex="1">
                    <mxGeometry x="440" y="80" width="40" height="40" as="geometry"/>
                </mxCell>
                <mxCell id="646" value="" style="whiteSpace=wrap;html=1;aspect=fixed;fontSize=16;fillColor=default;" parent="1" vertex="1">
                    <mxGeometry x="400" y="40" width="40" height="40" as="geometry"/>
                </mxCell>
                <mxCell id="647" value="" style="whiteSpace=wrap;html=1;aspect=fixed;fontSize=16;fillColor=default;" parent="1" vertex="1">
                    <mxGeometry x="400" y="80" width="40" height="40" as="geometry"/>
                </mxCell>
                <mxCell id="648" value="" style="whiteSpace=wrap;html=1;aspect=fixed;fontSize=16;fillColor=default;" parent="1" vertex="1">
                    <mxGeometry x="440" y="40" width="40" height="40" as="geometry"/>
                </mxCell>
                <mxCell id="649" value="" style="whiteSpace=wrap;html=1;aspect=fixed;fontSize=16;fillColor=default;" parent="1" vertex="1">
                    <mxGeometry x="440" y="80" width="40" height="40" as="geometry"/>
                </mxCell>
                <mxCell id="650" value="" style="whiteSpace=wrap;html=1;aspect=fixed;fontSize=16;fillColor=default;" parent="1" vertex="1">
                    <mxGeometry x="400" y="40" width="40" height="40" as="geometry"/>
                </mxCell>
                <mxCell id="651" value="" style="whiteSpace=wrap;html=1;aspect=fixed;fontSize=16;fillColor=default;" parent="1" vertex="1">
                    <mxGeometry x="400" y="80" width="40" height="40" as="geometry"/>
                </mxCell>
                <mxCell id="652" value="" style="whiteSpace=wrap;html=1;aspect=fixed;fontSize=16;fillColor=default;" parent="1" vertex="1">
                    <mxGeometry x="440" y="40" width="40" height="40" as="geometry"/>
                </mxCell>
                <mxCell id="653" value="" style="whiteSpace=wrap;html=1;aspect=fixed;fontSize=16;fillColor=default;" parent="1" vertex="1">
                    <mxGeometry x="440" y="80" width="40" height="40" as="geometry"/>
                </mxCell>
                <mxCell id="654" value="" style="whiteSpace=wrap;html=1;aspect=fixed;fontSize=16;fillColor=default;" parent="1" vertex="1">
                    <mxGeometry x="360" y="40" width="40" height="40" as="geometry"/>
                </mxCell>
                <mxCell id="655" value="" style="whiteSpace=wrap;html=1;aspect=fixed;fontSize=16;fillColor=default;" parent="1" vertex="1">
                    <mxGeometry x="360" y="80" width="40" height="40" as="geometry"/>
                </mxCell>
                <mxCell id="656" value="" style="whiteSpace=wrap;html=1;aspect=fixed;fontSize=16;fillColor=default;" parent="1" vertex="1">
                    <mxGeometry x="320" y="80" width="40" height="40" as="geometry"/>
                </mxCell>
                <mxCell id="657" value="" style="shape=waypoint;sketch=0;size=6;pointerEvents=1;points=[];fillColor=none;resizable=0;rotatable=0;perimeter=centerPerimeter;snapToPoint=1;fontSize=16;" parent="1" vertex="1">
                    <mxGeometry x="40" y="40" width="40" height="40" as="geometry"/>
                </mxCell>
                <mxCell id="666" value="" style="whiteSpace=wrap;html=1;aspect=fixed;fontSize=16;fillColor=default;" parent="1" vertex="1">
                    <mxGeometry x="320" y="40" width="20" height="20" as="geometry"/>
                </mxCell>
                <mxCell id="668" value="" style="whiteSpace=wrap;html=1;aspect=fixed;fontSize=16;fillColor=default;" parent="1" vertex="1">
                    <mxGeometry x="340" y="40" width="20" height="20" as="geometry"/>
                </mxCell>
                <mxCell id="669" value="" style="whiteSpace=wrap;html=1;aspect=fixed;fontSize=16;fillColor=default;" parent="1" vertex="1">
                    <mxGeometry x="340" y="60" width="20" height="20" as="geometry"/>
                </mxCell>
                <mxCell id="670" value="" style="shape=waypoint;sketch=0;size=6;pointerEvents=1;points=[];fillColor=none;resizable=0;rotatable=0;perimeter=centerPerimeter;snapToPoint=1;fontSize=16;" parent="1" vertex="1">
                    <mxGeometry x="310" y="30" width="40" height="40" as="geometry"/>
                </mxCell>
                <mxCell id="671" value="" style="shape=waypoint;sketch=0;size=6;pointerEvents=1;points=[];fillColor=none;resizable=0;rotatable=0;perimeter=centerPerimeter;snapToPoint=1;fontSize=16;" parent="1" vertex="1">
                    <mxGeometry x="330" y="30" width="40" height="40" as="geometry"/>
                </mxCell>
                <mxCell id="672" value="" style="shape=waypoint;sketch=0;size=6;pointerEvents=1;points=[];fillColor=none;resizable=0;rotatable=0;perimeter=centerPerimeter;snapToPoint=1;fontSize=16;" parent="1" vertex="1">
                    <mxGeometry x="310" y="50" width="40" height="40" as="geometry"/>
                </mxCell>
                <mxCell id="673" value="" style="shape=waypoint;sketch=0;size=6;pointerEvents=1;points=[];fillColor=none;resizable=0;rotatable=0;perimeter=centerPerimeter;snapToPoint=1;fontSize=16;" parent="1" vertex="1">
                    <mxGeometry x="330" y="50" width="40" height="40" as="geometry"/>
                </mxCell>
                <mxCell id="674" value="" style="shape=flexArrow;endArrow=classic;html=1;fontSize=16;" parent="1" edge="1">
                    <mxGeometry width="50" height="50" relative="1" as="geometry">
                        <mxPoint x="215" y="78.82" as="sourcePoint"/>
                        <mxPoint x="295" y="78.82" as="targetPoint"/>
                    </mxGeometry>
                </mxCell>
                <mxCell id="675" value="1280 x 720" style="text;html=1;resizable=0;autosize=1;align=center;verticalAlign=middle;points=[];fillColor=none;strokeColor=none;rounded=0;fontSize=16;" parent="1" vertex="1">
                    <mxGeometry x="71" y="147" width="89" height="23" as="geometry"/>
                </mxCell>
                <mxCell id="676" value="2560 x 1440" style="text;html=1;resizable=0;autosize=1;align=center;verticalAlign=middle;points=[];fillColor=none;strokeColor=none;rounded=0;fontSize=16;" parent="1" vertex="1">
                    <mxGeometry x="351" y="147" width="98" height="23" as="geometry"/>
                </mxCell>
                <mxCell id="677" value="" style="whiteSpace=wrap;html=1;aspect=fixed;fontSize=16;fillColor=default;" parent="1" vertex="1">
                    <mxGeometry x="360" y="40" width="20" height="20" as="geometry"/>
                </mxCell>
                <mxCell id="678" value="" style="whiteSpace=wrap;html=1;aspect=fixed;fontSize=16;fillColor=default;" parent="1" vertex="1">
                    <mxGeometry x="380" y="60" width="20" height="20" as="geometry"/>
                </mxCell>
                <mxCell id="679" value="" style="whiteSpace=wrap;html=1;aspect=fixed;fontSize=16;fillColor=default;" parent="1" vertex="1">
                    <mxGeometry x="400" y="40" width="20" height="20" as="geometry"/>
                </mxCell>
                <mxCell id="680" value="" style="whiteSpace=wrap;html=1;aspect=fixed;fontSize=16;fillColor=default;" parent="1" vertex="1">
                    <mxGeometry x="420" y="60" width="20" height="20" as="geometry"/>
                </mxCell>
                <mxCell id="681" value="" style="whiteSpace=wrap;html=1;aspect=fixed;fontSize=16;fillColor=default;" parent="1" vertex="1">
                    <mxGeometry x="440" y="40" width="20" height="20" as="geometry"/>
                </mxCell>
                <mxCell id="682" value="" style="whiteSpace=wrap;html=1;aspect=fixed;fontSize=16;fillColor=default;" parent="1" vertex="1">
                    <mxGeometry x="460" y="60" width="20" height="20" as="geometry"/>
                </mxCell>
                <mxCell id="683" value="" style="whiteSpace=wrap;html=1;aspect=fixed;fontSize=16;fillColor=default;" parent="1" vertex="1">
                    <mxGeometry x="320" y="80" width="20" height="20" as="geometry"/>
                </mxCell>
                <mxCell id="684" value="" style="whiteSpace=wrap;html=1;aspect=fixed;fontSize=16;fillColor=default;" parent="1" vertex="1">
                    <mxGeometry x="340" y="100" width="20" height="20" as="geometry"/>
                </mxCell>
                <mxCell id="685" value="" style="whiteSpace=wrap;html=1;aspect=fixed;fontSize=16;fillColor=default;" parent="1" vertex="1">
                    <mxGeometry x="360" y="80" width="20" height="20" as="geometry"/>
                </mxCell>
                <mxCell id="686" value="" style="whiteSpace=wrap;html=1;aspect=fixed;fontSize=16;fillColor=default;" parent="1" vertex="1">
                    <mxGeometry x="380" y="100" width="20" height="20" as="geometry"/>
                </mxCell>
                <mxCell id="687" value="" style="whiteSpace=wrap;html=1;aspect=fixed;fontSize=16;fillColor=default;" parent="1" vertex="1">
                    <mxGeometry x="400" y="80" width="20" height="20" as="geometry"/>
                </mxCell>
                <mxCell id="688" value="" style="whiteSpace=wrap;html=1;aspect=fixed;fontSize=16;fillColor=default;" parent="1" vertex="1">
                    <mxGeometry x="420" y="100" width="20" height="20" as="geometry"/>
                </mxCell>
                <mxCell id="689" value="" style="whiteSpace=wrap;html=1;aspect=fixed;fontSize=16;fillColor=default;" parent="1" vertex="1">
                    <mxGeometry x="440" y="80" width="20" height="20" as="geometry"/>
                </mxCell>
                <mxCell id="690" value="" style="whiteSpace=wrap;html=1;aspect=fixed;fontSize=16;fillColor=default;" parent="1" vertex="1">
                    <mxGeometry x="460" y="100" width="20" height="20" as="geometry"/>
                </mxCell>
                <mxCell id="691" value="" style="shape=waypoint;sketch=0;size=6;pointerEvents=1;points=[];fillColor=none;resizable=0;rotatable=0;perimeter=centerPerimeter;snapToPoint=1;fontSize=16;" parent="1" vertex="1">
                    <mxGeometry x="80" y="40" width="40" height="40" as="geometry"/>
                </mxCell>
                <mxCell id="692" value="" style="shape=waypoint;sketch=0;size=6;pointerEvents=1;points=[];fillColor=none;resizable=0;rotatable=0;perimeter=centerPerimeter;snapToPoint=1;fontSize=16;" parent="1" vertex="1">
                    <mxGeometry x="120" y="40" width="40" height="40" as="geometry"/>
                </mxCell>
                <mxCell id="693" value="" style="shape=waypoint;sketch=0;size=6;pointerEvents=1;points=[];fillColor=#d80073;resizable=0;rotatable=0;perimeter=centerPerimeter;snapToPoint=1;fontSize=16;fontColor=#ffffff;strokeColor=#A50040;" parent="1" vertex="1">
                    <mxGeometry x="160" y="40" width="40" height="40" as="geometry"/>
                </mxCell>
                <mxCell id="694" value="" style="shape=waypoint;sketch=0;size=6;pointerEvents=1;points=[];fillColor=#d80073;resizable=0;rotatable=0;perimeter=centerPerimeter;snapToPoint=1;fontSize=16;fontColor=#ffffff;strokeColor=#A50040;" parent="1" vertex="1">
                    <mxGeometry x="80" y="80" width="40" height="40" as="geometry"/>
                </mxCell>
                <mxCell id="695" value="" style="shape=waypoint;sketch=0;size=6;pointerEvents=1;points=[];fillColor=none;resizable=0;rotatable=0;perimeter=centerPerimeter;snapToPoint=1;fontSize=16;" parent="1" vertex="1">
                    <mxGeometry x="40" y="80" width="40" height="40" as="geometry"/>
                </mxCell>
                <mxCell id="696" value="" style="shape=waypoint;sketch=0;size=6;pointerEvents=1;points=[];fillColor=#d80073;resizable=0;rotatable=0;perimeter=centerPerimeter;snapToPoint=1;fontSize=16;fontColor=#ffffff;strokeColor=#A50040;" parent="1" vertex="1">
                    <mxGeometry x="120" y="80" width="40" height="40" as="geometry"/>
                </mxCell>
                <mxCell id="697" value="" style="shape=waypoint;sketch=0;size=6;pointerEvents=1;points=[];fillColor=#d80073;resizable=0;rotatable=0;perimeter=centerPerimeter;snapToPoint=1;fontSize=16;fontColor=#ffffff;strokeColor=#A50040;" parent="1" vertex="1">
                    <mxGeometry x="160" y="80" width="40" height="40" as="geometry"/>
                </mxCell>
                <mxCell id="699" value="" style="triangle;whiteSpace=wrap;html=1;fontSize=16;fillColor=none;rotation=60;" parent="1" vertex="1">
                    <mxGeometry x="104" y="1.539999999999992" width="80.26" height="216.93" as="geometry"/>
                </mxCell>
                <mxCell id="700" value="" style="shape=waypoint;sketch=0;size=6;pointerEvents=1;points=[];fillColor=none;resizable=0;rotatable=0;perimeter=centerPerimeter;snapToPoint=1;fontSize=16;" parent="1" vertex="1">
                    <mxGeometry x="350" y="30" width="40" height="40" as="geometry"/>
                </mxCell>
                <mxCell id="701" value="" style="shape=waypoint;sketch=0;size=6;pointerEvents=1;points=[];fillColor=none;resizable=0;rotatable=0;perimeter=centerPerimeter;snapToPoint=1;fontSize=16;" parent="1" vertex="1">
                    <mxGeometry x="370" y="30" width="40" height="40" as="geometry"/>
                </mxCell>
                <mxCell id="702" value="" style="shape=waypoint;sketch=0;size=6;pointerEvents=1;points=[];fillColor=none;resizable=0;rotatable=0;perimeter=centerPerimeter;snapToPoint=1;fontSize=16;" parent="1" vertex="1">
                    <mxGeometry x="350" y="50" width="40" height="40" as="geometry"/>
                </mxCell>
                <mxCell id="703" value="" style="shape=waypoint;sketch=0;size=6;pointerEvents=1;points=[];fillColor=none;resizable=0;rotatable=0;perimeter=centerPerimeter;snapToPoint=1;fontSize=16;" parent="1" vertex="1">
                    <mxGeometry x="370" y="50" width="40" height="40" as="geometry"/>
                </mxCell>
                <mxCell id="704" value="" style="shape=waypoint;sketch=0;size=6;pointerEvents=1;points=[];fillColor=none;resizable=0;rotatable=0;perimeter=centerPerimeter;snapToPoint=1;fontSize=16;" parent="1" vertex="1">
                    <mxGeometry x="390" y="30" width="40" height="40" as="geometry"/>
                </mxCell>
                <mxCell id="705" value="" style="shape=waypoint;sketch=0;size=6;pointerEvents=1;points=[];fillColor=none;resizable=0;rotatable=0;perimeter=centerPerimeter;snapToPoint=1;fontSize=16;" parent="1" vertex="1">
                    <mxGeometry x="410" y="30" width="40" height="40" as="geometry"/>
                </mxCell>
                <mxCell id="706" value="" style="shape=waypoint;sketch=0;size=6;pointerEvents=1;points=[];fillColor=none;resizable=0;rotatable=0;perimeter=centerPerimeter;snapToPoint=1;fontSize=16;" parent="1" vertex="1">
                    <mxGeometry x="390" y="50" width="40" height="40" as="geometry"/>
                </mxCell>
                <mxCell id="707" value="" style="shape=waypoint;sketch=0;size=6;pointerEvents=1;points=[];fillColor=#d80073;resizable=0;rotatable=0;perimeter=centerPerimeter;snapToPoint=1;fontSize=16;fontColor=#ffffff;strokeColor=#A50040;" parent="1" vertex="1">
                    <mxGeometry x="410" y="50" width="40" height="40" as="geometry"/>
                </mxCell>
                <mxCell id="708" value="" style="shape=waypoint;sketch=0;size=6;pointerEvents=1;points=[];fillColor=none;resizable=0;rotatable=0;perimeter=centerPerimeter;snapToPoint=1;fontSize=16;" parent="1" vertex="1">
                    <mxGeometry x="430" y="30" width="40" height="40" as="geometry"/>
                </mxCell>
                <mxCell id="709" value="" style="shape=waypoint;sketch=0;size=6;pointerEvents=1;points=[];fillColor=#d80073;resizable=0;rotatable=0;perimeter=centerPerimeter;snapToPoint=1;fontSize=16;fontColor=#ffffff;strokeColor=#A50040;" parent="1" vertex="1">
                    <mxGeometry x="450" y="30" width="40" height="40" as="geometry"/>
                </mxCell>
                <mxCell id="710" value="" style="shape=waypoint;sketch=0;size=6;pointerEvents=1;points=[];fillColor=#d80073;resizable=0;rotatable=0;perimeter=centerPerimeter;snapToPoint=1;fontSize=16;fontColor=#ffffff;strokeColor=#A50040;" parent="1" vertex="1">
                    <mxGeometry x="430" y="50" width="40" height="40" as="geometry"/>
                </mxCell>
                <mxCell id="711" value="" style="shape=waypoint;sketch=0;size=6;pointerEvents=1;points=[];fillColor=#d80073;resizable=0;rotatable=0;perimeter=centerPerimeter;snapToPoint=1;fontSize=16;fontColor=#ffffff;strokeColor=#A50040;" parent="1" vertex="1">
                    <mxGeometry x="450" y="50" width="40" height="40" as="geometry"/>
                </mxCell>
                <mxCell id="712" value="" style="shape=waypoint;sketch=0;size=6;pointerEvents=1;points=[];fillColor=none;resizable=0;rotatable=0;perimeter=centerPerimeter;snapToPoint=1;fontSize=16;" parent="1" vertex="1">
                    <mxGeometry x="310" y="70" width="40" height="40" as="geometry"/>
                </mxCell>
                <mxCell id="713" value="" style="shape=waypoint;sketch=0;size=6;pointerEvents=1;points=[];fillColor=none;resizable=0;rotatable=0;perimeter=centerPerimeter;snapToPoint=1;fontSize=16;" parent="1" vertex="1">
                    <mxGeometry x="330" y="70" width="40" height="40" as="geometry"/>
                </mxCell>
                <mxCell id="714" value="" style="shape=waypoint;sketch=0;size=6;pointerEvents=1;points=[];fillColor=none;resizable=0;rotatable=0;perimeter=centerPerimeter;snapToPoint=1;fontSize=16;" parent="1" vertex="1">
                    <mxGeometry x="310" y="90" width="40" height="40" as="geometry"/>
                </mxCell>
                <mxCell id="715" value="" style="shape=waypoint;sketch=0;size=6;pointerEvents=1;points=[];fillColor=#d80073;resizable=0;rotatable=0;perimeter=centerPerimeter;snapToPoint=1;fontSize=16;fontColor=#ffffff;strokeColor=#A50040;" parent="1" vertex="1">
                    <mxGeometry x="330" y="90" width="40" height="40" as="geometry"/>
                </mxCell>
                <mxCell id="716" value="" style="shape=waypoint;sketch=0;size=6;pointerEvents=1;points=[];fillColor=none;resizable=0;rotatable=0;perimeter=centerPerimeter;snapToPoint=1;fontSize=16;" parent="1" vertex="1">
                    <mxGeometry x="350" y="70" width="40" height="40" as="geometry"/>
                </mxCell>
                <mxCell id="717" value="" style="shape=waypoint;sketch=0;size=6;pointerEvents=1;points=[];fillColor=#d80073;resizable=0;rotatable=0;perimeter=centerPerimeter;snapToPoint=1;fontSize=16;fontColor=#ffffff;strokeColor=#A50040;" parent="1" vertex="1">
                    <mxGeometry x="370" y="70" width="40" height="40" as="geometry"/>
                </mxCell>
                <mxCell id="718" value="" style="shape=waypoint;sketch=0;size=6;pointerEvents=1;points=[];fillColor=#d80073;resizable=0;rotatable=0;perimeter=centerPerimeter;snapToPoint=1;fontSize=16;fontColor=#ffffff;strokeColor=#A50040;" parent="1" vertex="1">
                    <mxGeometry x="350" y="90" width="40" height="40" as="geometry"/>
                </mxCell>
                <mxCell id="719" value="" style="shape=waypoint;sketch=0;size=6;pointerEvents=1;points=[];fillColor=#d80073;resizable=0;rotatable=0;perimeter=centerPerimeter;snapToPoint=1;fontSize=16;fontColor=#ffffff;strokeColor=#A50040;" parent="1" vertex="1">
                    <mxGeometry x="370" y="90" width="40" height="40" as="geometry"/>
                </mxCell>
                <mxCell id="720" value="" style="shape=waypoint;sketch=0;size=6;pointerEvents=1;points=[];fillColor=#d80073;resizable=0;rotatable=0;perimeter=centerPerimeter;snapToPoint=1;fontSize=16;fontColor=#ffffff;strokeColor=#A50040;" parent="1" vertex="1">
                    <mxGeometry x="390" y="70" width="40" height="40" as="geometry"/>
                </mxCell>
                <mxCell id="721" value="" style="shape=waypoint;sketch=0;size=6;pointerEvents=1;points=[];fillColor=#d80073;resizable=0;rotatable=0;perimeter=centerPerimeter;snapToPoint=1;fontSize=16;fontColor=#ffffff;strokeColor=#A50040;" parent="1" vertex="1">
                    <mxGeometry x="410" y="70" width="40" height="40" as="geometry"/>
                </mxCell>
                <mxCell id="722" value="" style="shape=waypoint;sketch=0;size=6;pointerEvents=1;points=[];fillColor=#d80073;resizable=0;rotatable=0;perimeter=centerPerimeter;snapToPoint=1;fontSize=16;fontColor=#ffffff;strokeColor=#A50040;" parent="1" vertex="1">
                    <mxGeometry x="390" y="90" width="40" height="40" as="geometry"/>
                </mxCell>
                <mxCell id="723" value="" style="shape=waypoint;sketch=0;size=6;pointerEvents=1;points=[];fillColor=#d80073;resizable=0;rotatable=0;perimeter=centerPerimeter;snapToPoint=1;fontSize=16;fontColor=#ffffff;strokeColor=#A50040;" parent="1" vertex="1">
                    <mxGeometry x="410" y="90" width="40" height="40" as="geometry"/>
                </mxCell>
                <mxCell id="724" value="" style="shape=waypoint;sketch=0;size=6;pointerEvents=1;points=[];fillColor=#d80073;resizable=0;rotatable=0;perimeter=centerPerimeter;snapToPoint=1;fontSize=16;fontColor=#ffffff;strokeColor=#A50040;" parent="1" vertex="1">
                    <mxGeometry x="430" y="70" width="40" height="40" as="geometry"/>
                </mxCell>
                <mxCell id="725" value="" style="shape=waypoint;sketch=0;size=6;pointerEvents=1;points=[];fillColor=#d80073;resizable=0;rotatable=0;perimeter=centerPerimeter;snapToPoint=1;fontSize=16;fontColor=#ffffff;strokeColor=#A50040;" parent="1" vertex="1">
                    <mxGeometry x="450" y="70" width="40" height="40" as="geometry"/>
                </mxCell>
                <mxCell id="726" value="" style="shape=waypoint;sketch=0;size=6;pointerEvents=1;points=[];fillColor=#d80073;resizable=0;rotatable=0;perimeter=centerPerimeter;snapToPoint=1;fontSize=16;fontColor=#ffffff;strokeColor=#A50040;" parent="1" vertex="1">
                    <mxGeometry x="430" y="90" width="40" height="40" as="geometry"/>
                </mxCell>
                <mxCell id="727" value="" style="shape=waypoint;sketch=0;size=6;pointerEvents=1;points=[];fillColor=none;resizable=0;rotatable=0;perimeter=centerPerimeter;snapToPoint=1;fontSize=16;" parent="1" vertex="1">
                    <mxGeometry x="450" y="90" width="40" height="40" as="geometry"/>
                </mxCell>
                <mxCell id="728" value="" style="triangle;whiteSpace=wrap;html=1;fontSize=16;fillColor=none;rotation=60;" parent="1" vertex="1">
                    <mxGeometry x="389.74" y="-7.993605777301127e-15" width="80.26" height="216.93" as="geometry"/>
                </mxCell>
                <mxCell id="730" value="" style="shape=waypoint;sketch=0;size=6;pointerEvents=1;points=[];fillColor=#d80073;resizable=0;rotatable=0;perimeter=centerPerimeter;snapToPoint=1;fontSize=16;fontColor=#ffffff;strokeColor=#A50040;" parent="1" vertex="1">
                    <mxGeometry x="160" y="80" width="40" height="40" as="geometry"/>
                </mxCell>
                <mxCell id="731" value="" style="whiteSpace=wrap;html=1;aspect=fixed;fontSize=16;fillColor=none;fontColor=#ffffff;strokeColor=#00CC00;strokeWidth=2;" parent="1" vertex="1">
                    <mxGeometry x="40" y="40" width="40" height="40" as="geometry"/>
                </mxCell>
                <mxCell id="732" value="" style="whiteSpace=wrap;html=1;aspect=fixed;fontSize=16;fillColor=none;fontColor=#ffffff;strokeColor=#00CC00;strokeWidth=2;" parent="1" vertex="1">
                    <mxGeometry x="320" y="40" width="40" height="40" as="geometry"/>
                </mxCell>
            </root>
        </mxGraphModel>
    </diagram>
    <diagram id="yhqX28wcXQGSw4GNWNs5" name="MSAA">
        <mxGraphModel dx="1120" dy="792" grid="0" gridSize="10" guides="1" tooltips="1" connect="1" arrows="1" fold="1" page="1" pageScale="1" pageWidth="827" pageHeight="1169" math="0" shadow="0">
            <root>
                <mxCell id="9gsWbhP3-kX-3Itwo3pG-0"/>
                <mxCell id="9gsWbhP3-kX-3Itwo3pG-1" parent="9gsWbhP3-kX-3Itwo3pG-0"/>
                <mxCell id="MSarWwjT1xLRu8qvz5pR-4" value="" style="triangle;whiteSpace=wrap;html=1;fontSize=8;strokeColor=#006EAF;strokeWidth=1;fillColor=#1ba1e2;rotation=15;fontColor=#ffffff;" parent="9gsWbhP3-kX-3Itwo3pG-1" vertex="1">
                    <mxGeometry x="65" y="30.78" width="230" height="390" as="geometry"/>
                </mxCell>
                <mxCell id="tsxCnR62B3sm-_7H22cu-24" value="" style="whiteSpace=wrap;html=1;aspect=fixed;fontSize=8;strokeColor=#FFFFFF;strokeWidth=1;fillColor=none;fontColor=#ffffff;" parent="9gsWbhP3-kX-3Itwo3pG-1" vertex="1">
                    <mxGeometry x="80" y="40" width="240" height="240" as="geometry"/>
                </mxCell>
                <mxCell id="MSarWwjT1xLRu8qvz5pR-0" value="" style="shape=waypoint;sketch=0;size=6;pointerEvents=1;points=[];fillColor=none;resizable=0;rotatable=0;perimeter=centerPerimeter;snapToPoint=1;fontSize=16;" parent="9gsWbhP3-kX-3Itwo3pG-1" vertex="1">
                    <mxGeometry x="160" y="40" width="40" height="40" as="geometry"/>
                </mxCell>
                <mxCell id="MSarWwjT1xLRu8qvz5pR-1" value="" style="shape=waypoint;sketch=0;size=6;pointerEvents=1;points=[];fillColor=#e51400;resizable=0;rotatable=0;perimeter=centerPerimeter;snapToPoint=1;fontSize=16;fontColor=#ffffff;strokeColor=#B20000;" parent="9gsWbhP3-kX-3Itwo3pG-1" vertex="1">
                    <mxGeometry x="80" y="160" width="40" height="40" as="geometry"/>
                </mxCell>
                <mxCell id="MSarWwjT1xLRu8qvz5pR-2" value="" style="shape=waypoint;sketch=0;size=6;pointerEvents=1;points=[];fillColor=#e51400;resizable=0;rotatable=0;perimeter=centerPerimeter;snapToPoint=1;fontSize=16;fontColor=#ffffff;strokeColor=#B20000;" parent="9gsWbhP3-kX-3Itwo3pG-1" vertex="1">
                    <mxGeometry x="200" y="240" width="40" height="40" as="geometry"/>
                </mxCell>
                <mxCell id="MSarWwjT1xLRu8qvz5pR-3" value="" style="shape=waypoint;sketch=0;size=6;pointerEvents=1;points=[];fillColor=none;resizable=0;rotatable=0;perimeter=centerPerimeter;snapToPoint=1;fontSize=16;" parent="9gsWbhP3-kX-3Itwo3pG-1" vertex="1">
                    <mxGeometry x="280" y="120" width="40" height="40" as="geometry"/>
                </mxCell>
                <mxCell id="MSarWwjT1xLRu8qvz5pR-5" value="" style="shape=waypoint;sketch=0;size=6;pointerEvents=1;points=[];fillColor=#fa6800;resizable=0;rotatable=0;perimeter=centerPerimeter;snapToPoint=1;fontSize=16;strokeWidth=5;fontColor=#000000;strokeColor=#C73500;" parent="9gsWbhP3-kX-3Itwo3pG-1" vertex="1">
                    <mxGeometry x="180" y="140" width="40" height="40" as="geometry"/>
                </mxCell>
                <mxCell id="MSarWwjT1xLRu8qvz5pR-6" value="0" style="text;html=1;resizable=0;autosize=1;align=center;verticalAlign=middle;points=[];fillColor=none;strokeColor=none;rounded=0;fontSize=20;" parent="9gsWbhP3-kX-3Itwo3pG-1" vertex="1">
                    <mxGeometry x="185" y="45" width="30" height="30" as="geometry"/>
                </mxCell>
                <mxCell id="MSarWwjT1xLRu8qvz5pR-7" value="1" style="text;html=1;resizable=0;autosize=1;align=center;verticalAlign=middle;points=[];fillColor=none;strokeColor=none;rounded=0;fontSize=20;" parent="9gsWbhP3-kX-3Itwo3pG-1" vertex="1">
                    <mxGeometry x="90" y="180" width="30" height="30" as="geometry"/>
                </mxCell>
                <mxCell id="MSarWwjT1xLRu8qvz5pR-8" value="2" style="text;html=1;resizable=0;autosize=1;align=center;verticalAlign=middle;points=[];fillColor=none;strokeColor=none;rounded=0;fontSize=20;" parent="9gsWbhP3-kX-3Itwo3pG-1" vertex="1">
                    <mxGeometry x="230" y="245" width="30" height="30" as="geometry"/>
                </mxCell>
                <mxCell id="MSarWwjT1xLRu8qvz5pR-9" value="3" style="text;html=1;resizable=0;autosize=1;align=center;verticalAlign=middle;points=[];fillColor=none;strokeColor=none;rounded=0;fontSize=20;" parent="9gsWbhP3-kX-3Itwo3pG-1" vertex="1">
                    <mxGeometry x="280" y="150" width="30" height="30" as="geometry"/>
                </mxCell>
            </root>
        </mxGraphModel>
    </diagram>
    <diagram id="3tNWfjetFS8tgJcdby6y" name="TAA">
        <mxGraphModel dx="1120" dy="792" grid="0" gridSize="10" guides="1" tooltips="1" connect="1" arrows="1" fold="1" page="1" pageScale="1" pageWidth="827" pageHeight="1169" math="0" shadow="0">
            <root>
                <mxCell id="2D5ckeFYmNTD451PQpD6-0"/>
                <mxCell id="2D5ckeFYmNTD451PQpD6-1" parent="2D5ckeFYmNTD451PQpD6-0"/>
                <mxCell id="gWKXCMkZmuyIUOMbUAMd-20" value="" style="whiteSpace=wrap;html=1;aspect=fixed;fontSize=20;strokeColor=#FFFFFF;strokeWidth=1;fillColor=none;" parent="2D5ckeFYmNTD451PQpD6-1" vertex="1">
                    <mxGeometry x="540" y="213" width="40" height="40" as="geometry"/>
                </mxCell>
                <mxCell id="2D5ckeFYmNTD451PQpD6-39" value="" style="rounded=0;whiteSpace=wrap;html=1;fontSize=20;strokeColor=#FFFFFF;strokeWidth=1;fillColor=none;" parent="2D5ckeFYmNTD451PQpD6-1" vertex="1">
                    <mxGeometry x="40" y="120" width="280" height="200" as="geometry"/>
                </mxCell>
                <mxCell id="2D5ckeFYmNTD451PQpD6-40" value="" style="triangle;whiteSpace=wrap;html=1;fontSize=20;strokeColor=#FFFFFF;strokeWidth=1;fillColor=none;rotation=10;" parent="2D5ckeFYmNTD451PQpD6-1" vertex="1">
                    <mxGeometry x="66.68" y="157.96" width="230" height="140" as="geometry"/>
                </mxCell>
                <mxCell id="Eb_z9BTSzr8NrhhOlLgS-0" value="" style="shape=waypoint;sketch=0;size=6;pointerEvents=1;points=[];fillColor=#fa6800;resizable=0;rotatable=0;perimeter=centerPerimeter;snapToPoint=1;fontSize=16;strokeWidth=3;fontColor=#000000;strokeColor=#C73500;" parent="2D5ckeFYmNTD451PQpD6-1" vertex="1">
                    <mxGeometry x="120" y="200" width="40" height="40" as="geometry"/>
                </mxCell>
                <mxCell id="gWKXCMkZmuyIUOMbUAMd-0" value="&#10;&#10; &#10;&#10;" style="shape=waypoint;sketch=0;size=6;pointerEvents=1;points=[];fillColor=#e51400;resizable=0;rotatable=0;perimeter=centerPerimeter;snapToPoint=1;fontSize=16;fontColor=#ffffff;strokeColor=#B20000;" parent="2D5ckeFYmNTD451PQpD6-1" vertex="1">
                    <mxGeometry x="107" y="191" width="40" height="40" as="geometry"/>
                </mxCell>
                <mxCell id="gWKXCMkZmuyIUOMbUAMd-1" value="" style="whiteSpace=wrap;html=1;aspect=fixed;fontSize=20;strokeColor=#FFFFFF;strokeWidth=1;fillColor=none;" parent="2D5ckeFYmNTD451PQpD6-1" vertex="1">
                    <mxGeometry x="120" y="200" width="40" height="40" as="geometry"/>
                </mxCell>
                <mxCell id="gWKXCMkZmuyIUOMbUAMd-2" value="&#10;&#10; &#10;&#10;" style="shape=waypoint;sketch=0;size=6;pointerEvents=1;points=[];fillColor=#e51400;resizable=0;rotatable=0;perimeter=centerPerimeter;snapToPoint=1;fontSize=16;fontColor=#ffffff;strokeColor=#B20000;" parent="2D5ckeFYmNTD451PQpD6-1" vertex="1">
                    <mxGeometry x="134" y="186" width="40" height="40" as="geometry"/>
                </mxCell>
                <mxCell id="gWKXCMkZmuyIUOMbUAMd-4" value="&#10;&#10; &#10;&#10;" style="shape=waypoint;sketch=0;size=6;pointerEvents=1;points=[];fillColor=#e51400;resizable=0;rotatable=0;perimeter=centerPerimeter;snapToPoint=1;fontSize=16;fontColor=#ffffff;strokeColor=#B20000;" parent="2D5ckeFYmNTD451PQpD6-1" vertex="1">
                    <mxGeometry x="129" y="205" width="40" height="40" as="geometry"/>
                </mxCell>
                <mxCell id="gWKXCMkZmuyIUOMbUAMd-5" value="&#10;&#10; &#10;&#10;" style="shape=waypoint;sketch=0;size=6;pointerEvents=1;points=[];fillColor=#e51400;resizable=0;rotatable=0;perimeter=centerPerimeter;snapToPoint=1;fontSize=16;fontColor=#ffffff;strokeColor=#B20000;" parent="2D5ckeFYmNTD451PQpD6-1" vertex="1">
                    <mxGeometry x="112" y="213" width="40" height="40" as="geometry"/>
                </mxCell>
                <mxCell id="gWKXCMkZmuyIUOMbUAMd-16" value="" style="rounded=0;whiteSpace=wrap;html=1;fontSize=20;strokeColor=#FFFFFF;strokeWidth=1;fillColor=none;" parent="2D5ckeFYmNTD451PQpD6-1" vertex="1">
                    <mxGeometry x="440" y="120" width="280" height="200" as="geometry"/>
                </mxCell>
                <mxCell id="gWKXCMkZmuyIUOMbUAMd-17" value="" style="triangle;whiteSpace=wrap;html=1;fontSize=20;strokeColor=#FFFFFF;strokeWidth=1;fillColor=none;rotation=10;" parent="2D5ckeFYmNTD451PQpD6-1" vertex="1">
                    <mxGeometry x="486.68" y="170.96" width="230" height="140" as="geometry"/>
                </mxCell>
                <mxCell id="gWKXCMkZmuyIUOMbUAMd-18" value="" style="shape=waypoint;sketch=0;size=6;pointerEvents=1;points=[];fillColor=#1ba1e2;resizable=0;rotatable=0;perimeter=centerPerimeter;snapToPoint=1;fontSize=16;strokeWidth=3;fontColor=#ffffff;strokeColor=#006EAF;" parent="2D5ckeFYmNTD451PQpD6-1" vertex="1">
                    <mxGeometry x="540" y="213" width="40" height="40" as="geometry"/>
                </mxCell>
                <mxCell id="gWKXCMkZmuyIUOMbUAMd-19" value="&#10;&#10; &#10;&#10;" style="shape=waypoint;sketch=0;size=6;pointerEvents=1;points=[];fillColor=#60a917;resizable=0;rotatable=0;perimeter=centerPerimeter;snapToPoint=1;fontSize=16;fontColor=#ffffff;strokeColor=#2D7600;" parent="2D5ckeFYmNTD451PQpD6-1" vertex="1">
                    <mxGeometry x="534" y="225" width="40" height="40" as="geometry"/>
                </mxCell>
                <mxCell id="gWKXCMkZmuyIUOMbUAMd-24" value="" style="curved=1;endArrow=classic;html=1;fontSize=20;fillColor=#1ba1e2;strokeColor=#006EAF;" parent="2D5ckeFYmNTD451PQpD6-1" source="gWKXCMkZmuyIUOMbUAMd-18" edge="1">
                    <mxGeometry width="50" height="50" relative="1" as="geometry">
                        <mxPoint x="390" y="290" as="sourcePoint"/>
                        <mxPoint x="140" y="220" as="targetPoint"/>
                        <Array as="points">
                            <mxPoint x="450" y="150"/>
                            <mxPoint x="360" y="130"/>
                        </Array>
                    </mxGeometry>
                </mxCell>
                <mxCell id="gWKXCMkZmuyIUOMbUAMd-25" value="&#10;&#10; &#10;&#10;" style="shape=waypoint;sketch=0;size=6;pointerEvents=1;points=[];fillColor=#e51400;resizable=0;rotatable=0;perimeter=centerPerimeter;snapToPoint=1;fontSize=16;fontColor=#ffffff;strokeColor=#B20000;" parent="2D5ckeFYmNTD451PQpD6-1" vertex="1">
                    <mxGeometry x="164" y="395" width="40" height="40" as="geometry"/>
                </mxCell>
                <mxCell id="gWKXCMkZmuyIUOMbUAMd-26" value="&#10;&#10; &#10;&#10;" style="shape=waypoint;sketch=0;size=6;pointerEvents=1;points=[];fillColor=#fa6800;resizable=0;rotatable=0;perimeter=centerPerimeter;snapToPoint=1;fontSize=16;fontColor=#000000;strokeColor=#C73500;strokeWidth=3;" parent="2D5ckeFYmNTD451PQpD6-1" vertex="1">
                    <mxGeometry x="164" y="435" width="40" height="40" as="geometry"/>
                </mxCell>
                <mxCell id="gWKXCMkZmuyIUOMbUAMd-27" value="" style="whiteSpace=wrap;html=1;aspect=fixed;fontSize=20;strokeColor=#FFFFFF;strokeWidth=1;fillColor=none;" parent="2D5ckeFYmNTD451PQpD6-1" vertex="1">
                    <mxGeometry x="164" y="355" width="40" height="40" as="geometry"/>
                </mxCell>
                <mxCell id="gWKXCMkZmuyIUOMbUAMd-28" value="像素" style="text;html=1;resizable=0;autosize=1;align=left;verticalAlign=middle;points=[];fillColor=none;strokeColor=none;rounded=0;fontSize=20;" parent="2D5ckeFYmNTD451PQpD6-1" vertex="1">
                    <mxGeometry x="223" y="360" width="60" height="30" as="geometry"/>
                </mxCell>
                <mxCell id="gWKXCMkZmuyIUOMbUAMd-29" value="累积时间采样点（不单独存储）" style="text;html=1;resizable=0;autosize=1;align=left;verticalAlign=middle;points=[];fillColor=none;strokeColor=none;rounded=0;fontSize=20;" parent="2D5ckeFYmNTD451PQpD6-1" vertex="1">
                    <mxGeometry x="223" y="401" width="290" height="28" as="geometry"/>
                </mxCell>
                <mxCell id="gWKXCMkZmuyIUOMbUAMd-30" value="像素点颜色" style="text;html=1;resizable=0;autosize=1;align=left;verticalAlign=middle;points=[];fillColor=none;strokeColor=none;rounded=0;fontSize=20;" parent="2D5ckeFYmNTD451PQpD6-1" vertex="1">
                    <mxGeometry x="223" y="440" width="120" height="30" as="geometry"/>
                </mxCell>
                <mxCell id="gWKXCMkZmuyIUOMbUAMd-31" value="&#10;&#10; &#10;&#10;" style="shape=waypoint;sketch=0;size=6;pointerEvents=1;points=[];fillColor=#60a917;resizable=0;rotatable=0;perimeter=centerPerimeter;snapToPoint=1;fontSize=16;fontColor=#ffffff;strokeColor=#2D7600;" parent="2D5ckeFYmNTD451PQpD6-1" vertex="1">
                    <mxGeometry x="164" y="475" width="40" height="40" as="geometry"/>
                </mxCell>
                <mxCell id="gWKXCMkZmuyIUOMbUAMd-33" value="抖动位置的新采样点" style="text;html=1;resizable=0;autosize=1;align=left;verticalAlign=middle;points=[];fillColor=none;strokeColor=none;rounded=0;fontSize=20;" parent="2D5ckeFYmNTD451PQpD6-1" vertex="1">
                    <mxGeometry x="223" y="480" width="200" height="30" as="geometry"/>
                </mxCell>
                <mxCell id="gWKXCMkZmuyIUOMbUAMd-35" value="&#10;&#10; &#10;&#10;" style="shape=waypoint;sketch=0;size=6;pointerEvents=1;points=[];fillColor=#1ba1e2;resizable=0;rotatable=0;perimeter=centerPerimeter;snapToPoint=1;fontSize=16;fontColor=#ffffff;strokeColor=#006EAF;strokeWidth=3;" parent="2D5ckeFYmNTD451PQpD6-1" vertex="1">
                    <mxGeometry x="164" y="515" width="40" height="40" as="geometry"/>
                </mxCell>
                <mxCell id="gWKXCMkZmuyIUOMbUAMd-36" value="上一帧像素点颜色和新采样点混合的像素点颜色" style="text;html=1;resizable=0;autosize=1;align=left;verticalAlign=middle;points=[];fillColor=none;strokeColor=none;rounded=0;fontSize=20;" parent="2D5ckeFYmNTD451PQpD6-1" vertex="1">
                    <mxGeometry x="223" y="520" width="440" height="30" as="geometry"/>
                </mxCell>
                <mxCell id="gWKXCMkZmuyIUOMbUAMd-37" value="第 N - 1 帧" style="text;html=1;resizable=0;autosize=1;align=center;verticalAlign=middle;points=[];fillColor=none;strokeColor=none;rounded=0;fontSize=20;" parent="2D5ckeFYmNTD451PQpD6-1" vertex="1">
                    <mxGeometry x="120" y="90" width="110" height="30" as="geometry"/>
                </mxCell>
                <mxCell id="gWKXCMkZmuyIUOMbUAMd-38" value="第 N 帧" style="text;html=1;resizable=0;autosize=1;align=center;verticalAlign=middle;points=[];fillColor=none;strokeColor=none;rounded=0;fontSize=20;" parent="2D5ckeFYmNTD451PQpD6-1" vertex="1">
                    <mxGeometry x="535" y="90" width="80" height="30" as="geometry"/>
                </mxCell>
            </root>
        </mxGraphModel>
    </diagram>
    <diagram id="4sFmAScH2Pvu5Dv9Il5C" name="MLAA">
        <mxGraphModel dx="772" dy="546" grid="0" gridSize="10" guides="1" tooltips="1" connect="1" arrows="1" fold="1" page="1" pageScale="1" pageWidth="827" pageHeight="1169" math="0" shadow="0">
            <root>
                <mxCell id="YKjSiL0dgfdWfUoFSutc-0"/>
                <mxCell id="YKjSiL0dgfdWfUoFSutc-1" parent="YKjSiL0dgfdWfUoFSutc-0"/>
                <mxCell id="8XaOAR3oAeh26mqxCNWu-36" value="" style="whiteSpace=wrap;html=1;aspect=fixed;strokeColor=#000000;fillColor=#FFFFFF;fontColor=#ffffff;" vertex="1" parent="YKjSiL0dgfdWfUoFSutc-1">
                    <mxGeometry x="120" y="400" width="40" height="40" as="geometry"/>
                </mxCell>
                <mxCell id="pvChG14mQnCHkPC5qQgr-0" value="" style="whiteSpace=wrap;html=1;aspect=fixed;strokeColor=#000000;fillColor=#008a00;fontColor=#ffffff;" parent="YKjSiL0dgfdWfUoFSutc-1" vertex="1">
                    <mxGeometry x="40" y="120" width="40" height="40" as="geometry"/>
                </mxCell>
                <mxCell id="pvChG14mQnCHkPC5qQgr-5" value="" style="whiteSpace=wrap;html=1;aspect=fixed;fillColor=#FFFFFF;strokeColor=#000000;" parent="YKjSiL0dgfdWfUoFSutc-1" vertex="1">
                    <mxGeometry x="80" y="120" width="40" height="40" as="geometry"/>
                </mxCell>
                <mxCell id="pvChG14mQnCHkPC5qQgr-6" value="" style="whiteSpace=wrap;html=1;aspect=fixed;fillColor=#FFFFFF;strokeColor=#000000;" parent="YKjSiL0dgfdWfUoFSutc-1" vertex="1">
                    <mxGeometry x="120" y="120" width="40" height="40" as="geometry"/>
                </mxCell>
                <mxCell id="pvChG14mQnCHkPC5qQgr-7" value="" style="whiteSpace=wrap;html=1;aspect=fixed;fillColor=#FFFFFF;strokeColor=#000000;" parent="YKjSiL0dgfdWfUoFSutc-1" vertex="1">
                    <mxGeometry x="160" y="120" width="40" height="40" as="geometry"/>
                </mxCell>
                <mxCell id="pvChG14mQnCHkPC5qQgr-8" value="" style="whiteSpace=wrap;html=1;aspect=fixed;fillColor=#FFFFFF;strokeColor=#000000;" parent="YKjSiL0dgfdWfUoFSutc-1" vertex="1">
                    <mxGeometry x="200" y="120" width="40" height="40" as="geometry"/>
                </mxCell>
                <mxCell id="pvChG14mQnCHkPC5qQgr-10" value="" style="whiteSpace=wrap;html=1;aspect=fixed;strokeColor=#000000;fillColor=#008a00;fontColor=#ffffff;" parent="YKjSiL0dgfdWfUoFSutc-1" vertex="1">
                    <mxGeometry x="40" y="160" width="40" height="40" as="geometry"/>
                </mxCell>
                <mxCell id="pvChG14mQnCHkPC5qQgr-11" value="" style="whiteSpace=wrap;html=1;aspect=fixed;strokeColor=#000000;fillColor=#008a00;fontColor=#ffffff;" parent="YKjSiL0dgfdWfUoFSutc-1" vertex="1">
                    <mxGeometry x="80" y="160" width="40" height="40" as="geometry"/>
                </mxCell>
                <mxCell id="pvChG14mQnCHkPC5qQgr-12" value="" style="whiteSpace=wrap;html=1;aspect=fixed;strokeColor=#000000;fillColor=#008a00;fontColor=#ffffff;" parent="YKjSiL0dgfdWfUoFSutc-1" vertex="1">
                    <mxGeometry x="120" y="160" width="40" height="40" as="geometry"/>
                </mxCell>
                <mxCell id="pvChG14mQnCHkPC5qQgr-13" value="" style="whiteSpace=wrap;html=1;aspect=fixed;fillColor=#FFFFFF;strokeColor=#000000;" parent="YKjSiL0dgfdWfUoFSutc-1" vertex="1">
                    <mxGeometry x="160" y="160" width="40" height="40" as="geometry"/>
                </mxCell>
                <mxCell id="pvChG14mQnCHkPC5qQgr-14" value="" style="whiteSpace=wrap;html=1;aspect=fixed;fillColor=#FFFFFF;strokeColor=#000000;" parent="YKjSiL0dgfdWfUoFSutc-1" vertex="1">
                    <mxGeometry x="200" y="160" width="40" height="40" as="geometry"/>
                </mxCell>
                <mxCell id="pvChG14mQnCHkPC5qQgr-15" value="" style="whiteSpace=wrap;html=1;aspect=fixed;strokeColor=#000000;fillColor=#008a00;fontColor=#ffffff;" parent="YKjSiL0dgfdWfUoFSutc-1" vertex="1">
                    <mxGeometry x="40" y="200" width="40" height="40" as="geometry"/>
                </mxCell>
                <mxCell id="pvChG14mQnCHkPC5qQgr-16" value="" style="whiteSpace=wrap;html=1;aspect=fixed;strokeColor=#000000;fillColor=#008a00;fontColor=#ffffff;" parent="YKjSiL0dgfdWfUoFSutc-1" vertex="1">
                    <mxGeometry x="80" y="200" width="40" height="40" as="geometry"/>
                </mxCell>
                <mxCell id="pvChG14mQnCHkPC5qQgr-17" value="" style="whiteSpace=wrap;html=1;aspect=fixed;strokeColor=#000000;fillColor=#008a00;fontColor=#ffffff;" parent="YKjSiL0dgfdWfUoFSutc-1" vertex="1">
                    <mxGeometry x="120" y="200" width="40" height="40" as="geometry"/>
                </mxCell>
                <mxCell id="pvChG14mQnCHkPC5qQgr-18" value="" style="whiteSpace=wrap;html=1;aspect=fixed;strokeColor=#000000;fillColor=#008a00;fontColor=#ffffff;" parent="YKjSiL0dgfdWfUoFSutc-1" vertex="1">
                    <mxGeometry x="160" y="200" width="40" height="40" as="geometry"/>
                </mxCell>
                <mxCell id="pvChG14mQnCHkPC5qQgr-19" value="" style="whiteSpace=wrap;html=1;aspect=fixed;fillColor=#FFFFFF;strokeColor=#000000;" parent="YKjSiL0dgfdWfUoFSutc-1" vertex="1">
                    <mxGeometry x="200" y="200" width="40" height="40" as="geometry"/>
                </mxCell>
                <mxCell id="pvChG14mQnCHkPC5qQgr-40" value="" style="whiteSpace=wrap;html=1;aspect=fixed;fillColor=#FFFFFF;strokeColor=#000000;" parent="YKjSiL0dgfdWfUoFSutc-1" vertex="1">
                    <mxGeometry x="40" y="80" width="40" height="40" as="geometry"/>
                </mxCell>
                <mxCell id="pvChG14mQnCHkPC5qQgr-41" value="" style="whiteSpace=wrap;html=1;aspect=fixed;fillColor=#FFFFFF;strokeColor=#000000;" parent="YKjSiL0dgfdWfUoFSutc-1" vertex="1">
                    <mxGeometry x="80" y="80" width="40" height="40" as="geometry"/>
                </mxCell>
                <mxCell id="pvChG14mQnCHkPC5qQgr-42" value="" style="whiteSpace=wrap;html=1;aspect=fixed;fillColor=#FFFFFF;strokeColor=#000000;" parent="YKjSiL0dgfdWfUoFSutc-1" vertex="1">
                    <mxGeometry x="120" y="80" width="40" height="40" as="geometry"/>
                </mxCell>
                <mxCell id="pvChG14mQnCHkPC5qQgr-43" value="" style="whiteSpace=wrap;html=1;aspect=fixed;fillColor=#FFFFFF;strokeColor=#000000;" parent="YKjSiL0dgfdWfUoFSutc-1" vertex="1">
                    <mxGeometry x="160" y="80" width="40" height="40" as="geometry"/>
                </mxCell>
                <mxCell id="pvChG14mQnCHkPC5qQgr-44" value="" style="whiteSpace=wrap;html=1;aspect=fixed;fillColor=#FFFFFF;strokeColor=#000000;" parent="YKjSiL0dgfdWfUoFSutc-1" vertex="1">
                    <mxGeometry x="200" y="80" width="40" height="40" as="geometry"/>
                </mxCell>
                <mxCell id="8XaOAR3oAeh26mqxCNWu-8" value="" style="whiteSpace=wrap;html=1;aspect=fixed;strokeColor=#000000;fillColor=#008a00;fontColor=#ffffff;" vertex="1" parent="YKjSiL0dgfdWfUoFSutc-1">
                    <mxGeometry x="320" y="120" width="40" height="40" as="geometry"/>
                </mxCell>
                <mxCell id="8XaOAR3oAeh26mqxCNWu-9" value="" style="whiteSpace=wrap;html=1;aspect=fixed;fillColor=#FFFFFF;strokeColor=#000000;" vertex="1" parent="YKjSiL0dgfdWfUoFSutc-1">
                    <mxGeometry x="360" y="120" width="40" height="40" as="geometry"/>
                </mxCell>
                <mxCell id="8XaOAR3oAeh26mqxCNWu-10" value="" style="whiteSpace=wrap;html=1;aspect=fixed;fillColor=#FFFFFF;strokeColor=#000000;" vertex="1" parent="YKjSiL0dgfdWfUoFSutc-1">
                    <mxGeometry x="400" y="120" width="40" height="40" as="geometry"/>
                </mxCell>
                <mxCell id="8XaOAR3oAeh26mqxCNWu-11" value="" style="whiteSpace=wrap;html=1;aspect=fixed;fillColor=#FFFFFF;strokeColor=#000000;" vertex="1" parent="YKjSiL0dgfdWfUoFSutc-1">
                    <mxGeometry x="440" y="120" width="40" height="40" as="geometry"/>
                </mxCell>
                <mxCell id="8XaOAR3oAeh26mqxCNWu-12" value="" style="whiteSpace=wrap;html=1;aspect=fixed;fillColor=#FFFFFF;strokeColor=#000000;" vertex="1" parent="YKjSiL0dgfdWfUoFSutc-1">
                    <mxGeometry x="480" y="120" width="40" height="40" as="geometry"/>
                </mxCell>
                <mxCell id="8XaOAR3oAeh26mqxCNWu-13" value="" style="whiteSpace=wrap;html=1;aspect=fixed;strokeColor=#000000;fillColor=#008a00;fontColor=#ffffff;" vertex="1" parent="YKjSiL0dgfdWfUoFSutc-1">
                    <mxGeometry x="320" y="160" width="40" height="40" as="geometry"/>
                </mxCell>
                <mxCell id="8XaOAR3oAeh26mqxCNWu-14" value="" style="whiteSpace=wrap;html=1;aspect=fixed;strokeColor=#000000;fillColor=#008a00;fontColor=#ffffff;" vertex="1" parent="YKjSiL0dgfdWfUoFSutc-1">
                    <mxGeometry x="360" y="160" width="40" height="40" as="geometry"/>
                </mxCell>
                <mxCell id="8XaOAR3oAeh26mqxCNWu-15" value="" style="whiteSpace=wrap;html=1;aspect=fixed;strokeColor=#000000;fillColor=#008a00;fontColor=#ffffff;" vertex="1" parent="YKjSiL0dgfdWfUoFSutc-1">
                    <mxGeometry x="400" y="160" width="40" height="40" as="geometry"/>
                </mxCell>
                <mxCell id="8XaOAR3oAeh26mqxCNWu-16" value="" style="whiteSpace=wrap;html=1;aspect=fixed;fillColor=#FFFFFF;strokeColor=#000000;" vertex="1" parent="YKjSiL0dgfdWfUoFSutc-1">
                    <mxGeometry x="440" y="160" width="40" height="40" as="geometry"/>
                </mxCell>
                <mxCell id="8XaOAR3oAeh26mqxCNWu-17" value="" style="whiteSpace=wrap;html=1;aspect=fixed;fillColor=#FFFFFF;strokeColor=#000000;" vertex="1" parent="YKjSiL0dgfdWfUoFSutc-1">
                    <mxGeometry x="480" y="160" width="40" height="40" as="geometry"/>
                </mxCell>
                <mxCell id="8XaOAR3oAeh26mqxCNWu-18" value="" style="whiteSpace=wrap;html=1;aspect=fixed;strokeColor=#000000;fillColor=#008a00;fontColor=#ffffff;" vertex="1" parent="YKjSiL0dgfdWfUoFSutc-1">
                    <mxGeometry x="320" y="200" width="40" height="40" as="geometry"/>
                </mxCell>
                <mxCell id="8XaOAR3oAeh26mqxCNWu-19" value="" style="whiteSpace=wrap;html=1;aspect=fixed;strokeColor=#000000;fillColor=#008a00;fontColor=#ffffff;" vertex="1" parent="YKjSiL0dgfdWfUoFSutc-1">
                    <mxGeometry x="360" y="200" width="40" height="40" as="geometry"/>
                </mxCell>
                <mxCell id="8XaOAR3oAeh26mqxCNWu-20" value="" style="whiteSpace=wrap;html=1;aspect=fixed;strokeColor=#000000;fillColor=#008a00;fontColor=#ffffff;" vertex="1" parent="YKjSiL0dgfdWfUoFSutc-1">
                    <mxGeometry x="400" y="200" width="40" height="40" as="geometry"/>
                </mxCell>
                <mxCell id="8XaOAR3oAeh26mqxCNWu-21" value="" style="whiteSpace=wrap;html=1;aspect=fixed;strokeColor=#000000;fillColor=#008a00;fontColor=#ffffff;" vertex="1" parent="YKjSiL0dgfdWfUoFSutc-1">
                    <mxGeometry x="440" y="200" width="40" height="40" as="geometry"/>
                </mxCell>
                <mxCell id="8XaOAR3oAeh26mqxCNWu-22" value="" style="whiteSpace=wrap;html=1;aspect=fixed;fillColor=#FFFFFF;strokeColor=#000000;" vertex="1" parent="YKjSiL0dgfdWfUoFSutc-1">
                    <mxGeometry x="480" y="200" width="40" height="40" as="geometry"/>
                </mxCell>
                <mxCell id="8XaOAR3oAeh26mqxCNWu-23" value="" style="whiteSpace=wrap;html=1;aspect=fixed;fillColor=#FFFFFF;strokeColor=#000000;" vertex="1" parent="YKjSiL0dgfdWfUoFSutc-1">
                    <mxGeometry x="320" y="80" width="40" height="40" as="geometry"/>
                </mxCell>
                <mxCell id="8XaOAR3oAeh26mqxCNWu-24" value="" style="whiteSpace=wrap;html=1;aspect=fixed;fillColor=#FFFFFF;strokeColor=#000000;" vertex="1" parent="YKjSiL0dgfdWfUoFSutc-1">
                    <mxGeometry x="360" y="80" width="40" height="40" as="geometry"/>
                </mxCell>
                <mxCell id="8XaOAR3oAeh26mqxCNWu-25" value="" style="whiteSpace=wrap;html=1;aspect=fixed;fillColor=#FFFFFF;strokeColor=#000000;" vertex="1" parent="YKjSiL0dgfdWfUoFSutc-1">
                    <mxGeometry x="400" y="80" width="40" height="40" as="geometry"/>
                </mxCell>
                <mxCell id="8XaOAR3oAeh26mqxCNWu-26" value="" style="whiteSpace=wrap;html=1;aspect=fixed;fillColor=#FFFFFF;strokeColor=#000000;" vertex="1" parent="YKjSiL0dgfdWfUoFSutc-1">
                    <mxGeometry x="440" y="80" width="40" height="40" as="geometry"/>
                </mxCell>
                <mxCell id="8XaOAR3oAeh26mqxCNWu-27" value="" style="whiteSpace=wrap;html=1;aspect=fixed;fillColor=#FFFFFF;strokeColor=#000000;" vertex="1" parent="YKjSiL0dgfdWfUoFSutc-1">
                    <mxGeometry x="480" y="80" width="40" height="40" as="geometry"/>
                </mxCell>
                <mxCell id="8XaOAR3oAeh26mqxCNWu-28" value="" style="endArrow=none;html=1;strokeColor=#B20000;exitX=0;exitY=0.5;exitDx=0;exitDy=0;entryX=0;entryY=0.5;entryDx=0;entryDy=0;entryPerimeter=0;fillColor=#e51400;" edge="1" parent="YKjSiL0dgfdWfUoFSutc-1" source="8XaOAR3oAeh26mqxCNWu-9" target="8XaOAR3oAeh26mqxCNWu-16">
                    <mxGeometry width="50" height="50" relative="1" as="geometry">
                        <mxPoint x="370" y="260" as="sourcePoint"/>
                        <mxPoint x="420" y="210" as="targetPoint"/>
                    </mxGeometry>
                </mxCell>
                <mxCell id="8XaOAR3oAeh26mqxCNWu-31" value="" style="whiteSpace=wrap;html=1;aspect=fixed;fillColor=#FFFFFF;strokeColor=#000000;" vertex="1" parent="YKjSiL0dgfdWfUoFSutc-1">
                    <mxGeometry x="80" y="360" width="40" height="40" as="geometry"/>
                </mxCell>
                <mxCell id="8XaOAR3oAeh26mqxCNWu-32" value="" style="whiteSpace=wrap;html=1;aspect=fixed;fillColor=#FFFFFF;strokeColor=#000000;" vertex="1" parent="YKjSiL0dgfdWfUoFSutc-1">
                    <mxGeometry x="120" y="360" width="40" height="40" as="geometry"/>
                </mxCell>
                <mxCell id="8XaOAR3oAeh26mqxCNWu-33" value="" style="whiteSpace=wrap;html=1;aspect=fixed;fillColor=#FFFFFF;strokeColor=#000000;" vertex="1" parent="YKjSiL0dgfdWfUoFSutc-1">
                    <mxGeometry x="160" y="360" width="40" height="40" as="geometry"/>
                </mxCell>
                <mxCell id="8XaOAR3oAeh26mqxCNWu-34" value="" style="whiteSpace=wrap;html=1;aspect=fixed;fillColor=#FFFFFF;strokeColor=#000000;" vertex="1" parent="YKjSiL0dgfdWfUoFSutc-1">
                    <mxGeometry x="200" y="360" width="40" height="40" as="geometry"/>
                </mxCell>
                <mxCell id="8XaOAR3oAeh26mqxCNWu-39" value="" style="whiteSpace=wrap;html=1;aspect=fixed;fillColor=#FFFFFF;strokeColor=#000000;" vertex="1" parent="YKjSiL0dgfdWfUoFSutc-1">
                    <mxGeometry x="200" y="400" width="40" height="40" as="geometry"/>
                </mxCell>
                <mxCell id="8XaOAR3oAeh26mqxCNWu-40" value="" style="whiteSpace=wrap;html=1;aspect=fixed;strokeColor=#000000;fillColor=#008a00;fontColor=#ffffff;" vertex="1" parent="YKjSiL0dgfdWfUoFSutc-1">
                    <mxGeometry x="40" y="440" width="40" height="40" as="geometry"/>
                </mxCell>
                <mxCell id="8XaOAR3oAeh26mqxCNWu-43" value="" style="whiteSpace=wrap;html=1;aspect=fixed;strokeColor=#000000;fillColor=#008a00;fontColor=#ffffff;" vertex="1" parent="YKjSiL0dgfdWfUoFSutc-1">
                    <mxGeometry x="160" y="440" width="40" height="40" as="geometry"/>
                </mxCell>
                <mxCell id="8XaOAR3oAeh26mqxCNWu-44" value="" style="whiteSpace=wrap;html=1;aspect=fixed;fillColor=#FFFFFF;strokeColor=#000000;" vertex="1" parent="YKjSiL0dgfdWfUoFSutc-1">
                    <mxGeometry x="200" y="440" width="40" height="40" as="geometry"/>
                </mxCell>
                <mxCell id="8XaOAR3oAeh26mqxCNWu-45" value="" style="whiteSpace=wrap;html=1;aspect=fixed;fillColor=#FFFFFF;strokeColor=#000000;" vertex="1" parent="YKjSiL0dgfdWfUoFSutc-1">
                    <mxGeometry x="40" y="320" width="40" height="40" as="geometry"/>
                </mxCell>
                <mxCell id="8XaOAR3oAeh26mqxCNWu-46" value="" style="whiteSpace=wrap;html=1;aspect=fixed;fillColor=#FFFFFF;strokeColor=#000000;" vertex="1" parent="YKjSiL0dgfdWfUoFSutc-1">
                    <mxGeometry x="80" y="320" width="40" height="40" as="geometry"/>
                </mxCell>
                <mxCell id="8XaOAR3oAeh26mqxCNWu-47" value="" style="whiteSpace=wrap;html=1;aspect=fixed;fillColor=#FFFFFF;strokeColor=#000000;" vertex="1" parent="YKjSiL0dgfdWfUoFSutc-1">
                    <mxGeometry x="120" y="320" width="40" height="40" as="geometry"/>
                </mxCell>
                <mxCell id="8XaOAR3oAeh26mqxCNWu-48" value="" style="whiteSpace=wrap;html=1;aspect=fixed;fillColor=#FFFFFF;strokeColor=#000000;" vertex="1" parent="YKjSiL0dgfdWfUoFSutc-1">
                    <mxGeometry x="160" y="320" width="40" height="40" as="geometry"/>
                </mxCell>
                <mxCell id="8XaOAR3oAeh26mqxCNWu-49" value="" style="whiteSpace=wrap;html=1;aspect=fixed;fillColor=#FFFFFF;strokeColor=#000000;" vertex="1" parent="YKjSiL0dgfdWfUoFSutc-1">
                    <mxGeometry x="200" y="320" width="40" height="40" as="geometry"/>
                </mxCell>
                <mxCell id="8XaOAR3oAeh26mqxCNWu-50" value="" style="triangle;whiteSpace=wrap;html=1;strokeColor=#005700;fillColor=#008a00;fontColor=#ffffff;" vertex="1" parent="YKjSiL0dgfdWfUoFSutc-1">
                    <mxGeometry x="80" y="380" width="80" height="80" as="geometry"/>
                </mxCell>
                <mxCell id="8XaOAR3oAeh26mqxCNWu-51" value="" style="rounded=0;whiteSpace=wrap;html=1;strokeColor=none;fillColor=#008a00;fontColor=#ffffff;" vertex="1" parent="YKjSiL0dgfdWfUoFSutc-1">
                    <mxGeometry x="80" y="420" width="80" height="20" as="geometry"/>
                </mxCell>
                <mxCell id="8XaOAR3oAeh26mqxCNWu-41" value="" style="whiteSpace=wrap;html=1;aspect=fixed;strokeColor=#000000;fillColor=#008a00;fontColor=#ffffff;" vertex="1" parent="YKjSiL0dgfdWfUoFSutc-1">
                    <mxGeometry x="80" y="440" width="40" height="40" as="geometry"/>
                </mxCell>
                <mxCell id="8XaOAR3oAeh26mqxCNWu-35" value="" style="whiteSpace=wrap;html=1;aspect=fixed;strokeColor=#000000;fillColor=#008a00;fontColor=#ffffff;" vertex="1" parent="YKjSiL0dgfdWfUoFSutc-1">
                    <mxGeometry x="40" y="400" width="40" height="40" as="geometry"/>
                </mxCell>
                <mxCell id="8XaOAR3oAeh26mqxCNWu-42" value="" style="whiteSpace=wrap;html=1;aspect=fixed;strokeColor=#000000;fillColor=#008a00;fontColor=#ffffff;" vertex="1" parent="YKjSiL0dgfdWfUoFSutc-1">
                    <mxGeometry x="120" y="440" width="40" height="40" as="geometry"/>
                </mxCell>
                <mxCell id="8XaOAR3oAeh26mqxCNWu-38" value="" style="whiteSpace=wrap;html=1;aspect=fixed;fillColor=#FFFFFF;strokeColor=#000000;" vertex="1" parent="YKjSiL0dgfdWfUoFSutc-1">
                    <mxGeometry x="160" y="400" width="40" height="40" as="geometry"/>
                </mxCell>
                <mxCell id="8XaOAR3oAeh26mqxCNWu-30" value="" style="whiteSpace=wrap;html=1;aspect=fixed;strokeColor=#000000;fillColor=#008a00;fontColor=#ffffff;" vertex="1" parent="YKjSiL0dgfdWfUoFSutc-1">
                    <mxGeometry x="40" y="360" width="40" height="40" as="geometry"/>
                </mxCell>
                <mxCell id="8XaOAR3oAeh26mqxCNWu-52" value="" style="endArrow=none;html=1;strokeColor=#000000;entryX=1;entryY=0;entryDx=0;entryDy=0;exitX=0;exitY=1;exitDx=0;exitDy=0;" edge="1" parent="YKjSiL0dgfdWfUoFSutc-1" source="8XaOAR3oAeh26mqxCNWu-32" target="8XaOAR3oAeh26mqxCNWu-35">
                    <mxGeometry width="50" height="50" relative="1" as="geometry">
                        <mxPoint x="290" y="370" as="sourcePoint"/>
                        <mxPoint x="340" y="320" as="targetPoint"/>
                    </mxGeometry>
                </mxCell>
                <mxCell id="8XaOAR3oAeh26mqxCNWu-73" value="" style="endArrow=none;html=1;strokeColor=#000000;exitX=0;exitY=0;exitDx=0;exitDy=0;entryX=0;entryY=0;entryDx=0;entryDy=0;" edge="1" parent="YKjSiL0dgfdWfUoFSutc-1" source="8XaOAR3oAeh26mqxCNWu-36" target="8XaOAR3oAeh26mqxCNWu-42">
                    <mxGeometry width="50" height="50" relative="1" as="geometry">
                        <mxPoint x="290" y="370" as="sourcePoint"/>
                        <mxPoint x="340" y="320" as="targetPoint"/>
                    </mxGeometry>
                </mxCell>
                <mxCell id="8XaOAR3oAeh26mqxCNWu-74" value="" style="whiteSpace=wrap;html=1;aspect=fixed;strokeColor=#000000;fillColor=#008a00;fontColor=#ffffff;" vertex="1" parent="YKjSiL0dgfdWfUoFSutc-1">
                    <mxGeometry x="320" y="360" width="40" height="40" as="geometry"/>
                </mxCell>
                <mxCell id="8XaOAR3oAeh26mqxCNWu-75" value="" style="whiteSpace=wrap;html=1;aspect=fixed;fillColor=#66FF66;strokeColor=#000000;" vertex="1" parent="YKjSiL0dgfdWfUoFSutc-1">
                    <mxGeometry x="360" y="360" width="40" height="40" as="geometry"/>
                </mxCell>
                <mxCell id="8XaOAR3oAeh26mqxCNWu-76" value="" style="whiteSpace=wrap;html=1;aspect=fixed;fillColor=#FFFFFF;strokeColor=#000000;" vertex="1" parent="YKjSiL0dgfdWfUoFSutc-1">
                    <mxGeometry x="400" y="360" width="40" height="40" as="geometry"/>
                </mxCell>
                <mxCell id="8XaOAR3oAeh26mqxCNWu-77" value="" style="whiteSpace=wrap;html=1;aspect=fixed;fillColor=#FFFFFF;strokeColor=#000000;" vertex="1" parent="YKjSiL0dgfdWfUoFSutc-1">
                    <mxGeometry x="440" y="360" width="40" height="40" as="geometry"/>
                </mxCell>
                <mxCell id="8XaOAR3oAeh26mqxCNWu-78" value="" style="whiteSpace=wrap;html=1;aspect=fixed;fillColor=#FFFFFF;strokeColor=#000000;" vertex="1" parent="YKjSiL0dgfdWfUoFSutc-1">
                    <mxGeometry x="480" y="360" width="40" height="40" as="geometry"/>
                </mxCell>
                <mxCell id="8XaOAR3oAeh26mqxCNWu-79" value="" style="whiteSpace=wrap;html=1;aspect=fixed;strokeColor=#000000;fillColor=#008a00;fontColor=#ffffff;" vertex="1" parent="YKjSiL0dgfdWfUoFSutc-1">
                    <mxGeometry x="320" y="400" width="40" height="40" as="geometry"/>
                </mxCell>
                <mxCell id="8XaOAR3oAeh26mqxCNWu-80" value="" style="whiteSpace=wrap;html=1;aspect=fixed;strokeColor=#000000;fillColor=#008a00;fontColor=#ffffff;" vertex="1" parent="YKjSiL0dgfdWfUoFSutc-1">
                    <mxGeometry x="360" y="400" width="40" height="40" as="geometry"/>
                </mxCell>
                <mxCell id="8XaOAR3oAeh26mqxCNWu-81" value="" style="whiteSpace=wrap;html=1;aspect=fixed;strokeColor=#000000;fillColor=#00CC00;fontColor=#ffffff;gradientColor=none;" vertex="1" parent="YKjSiL0dgfdWfUoFSutc-1">
                    <mxGeometry x="400" y="400" width="40" height="40" as="geometry"/>
                </mxCell>
                <mxCell id="8XaOAR3oAeh26mqxCNWu-82" value="" style="whiteSpace=wrap;html=1;aspect=fixed;fillColor=#FFFFFF;strokeColor=#000000;" vertex="1" parent="YKjSiL0dgfdWfUoFSutc-1">
                    <mxGeometry x="440" y="400" width="40" height="40" as="geometry"/>
                </mxCell>
                <mxCell id="8XaOAR3oAeh26mqxCNWu-83" value="" style="whiteSpace=wrap;html=1;aspect=fixed;fillColor=#FFFFFF;strokeColor=#000000;" vertex="1" parent="YKjSiL0dgfdWfUoFSutc-1">
                    <mxGeometry x="480" y="400" width="40" height="40" as="geometry"/>
                </mxCell>
                <mxCell id="8XaOAR3oAeh26mqxCNWu-84" value="" style="whiteSpace=wrap;html=1;aspect=fixed;strokeColor=#000000;fillColor=#008a00;fontColor=#ffffff;" vertex="1" parent="YKjSiL0dgfdWfUoFSutc-1">
                    <mxGeometry x="320" y="440" width="40" height="40" as="geometry"/>
                </mxCell>
                <mxCell id="8XaOAR3oAeh26mqxCNWu-85" value="" style="whiteSpace=wrap;html=1;aspect=fixed;strokeColor=#000000;fillColor=#008a00;fontColor=#ffffff;" vertex="1" parent="YKjSiL0dgfdWfUoFSutc-1">
                    <mxGeometry x="360" y="440" width="40" height="40" as="geometry"/>
                </mxCell>
                <mxCell id="8XaOAR3oAeh26mqxCNWu-86" value="" style="whiteSpace=wrap;html=1;aspect=fixed;strokeColor=#000000;fillColor=#008a00;fontColor=#ffffff;" vertex="1" parent="YKjSiL0dgfdWfUoFSutc-1">
                    <mxGeometry x="400" y="440" width="40" height="40" as="geometry"/>
                </mxCell>
                <mxCell id="8XaOAR3oAeh26mqxCNWu-87" value="" style="whiteSpace=wrap;html=1;aspect=fixed;strokeColor=#000000;fillColor=#008a00;fontColor=#ffffff;" vertex="1" parent="YKjSiL0dgfdWfUoFSutc-1">
                    <mxGeometry x="440" y="440" width="40" height="40" as="geometry"/>
                </mxCell>
                <mxCell id="8XaOAR3oAeh26mqxCNWu-88" value="" style="whiteSpace=wrap;html=1;aspect=fixed;fillColor=#FFFFFF;strokeColor=#000000;" vertex="1" parent="YKjSiL0dgfdWfUoFSutc-1">
                    <mxGeometry x="480" y="440" width="40" height="40" as="geometry"/>
                </mxCell>
                <mxCell id="8XaOAR3oAeh26mqxCNWu-89" value="" style="whiteSpace=wrap;html=1;aspect=fixed;fillColor=#FFFFFF;strokeColor=#000000;" vertex="1" parent="YKjSiL0dgfdWfUoFSutc-1">
                    <mxGeometry x="320" y="320" width="40" height="40" as="geometry"/>
                </mxCell>
                <mxCell id="8XaOAR3oAeh26mqxCNWu-90" value="" style="whiteSpace=wrap;html=1;aspect=fixed;fillColor=#FFFFFF;strokeColor=#000000;" vertex="1" parent="YKjSiL0dgfdWfUoFSutc-1">
                    <mxGeometry x="360" y="320" width="40" height="40" as="geometry"/>
                </mxCell>
                <mxCell id="8XaOAR3oAeh26mqxCNWu-91" value="" style="whiteSpace=wrap;html=1;aspect=fixed;fillColor=#FFFFFF;strokeColor=#000000;" vertex="1" parent="YKjSiL0dgfdWfUoFSutc-1">
                    <mxGeometry x="400" y="320" width="40" height="40" as="geometry"/>
                </mxCell>
                <mxCell id="8XaOAR3oAeh26mqxCNWu-92" value="" style="whiteSpace=wrap;html=1;aspect=fixed;fillColor=#FFFFFF;strokeColor=#000000;" vertex="1" parent="YKjSiL0dgfdWfUoFSutc-1">
                    <mxGeometry x="440" y="320" width="40" height="40" as="geometry"/>
                </mxCell>
                <mxCell id="8XaOAR3oAeh26mqxCNWu-93" value="" style="whiteSpace=wrap;html=1;aspect=fixed;fillColor=#FFFFFF;strokeColor=#000000;" vertex="1" parent="YKjSiL0dgfdWfUoFSutc-1">
                    <mxGeometry x="480" y="320" width="40" height="40" as="geometry"/>
                </mxCell>
                <mxCell id="8XaOAR3oAeh26mqxCNWu-94" value="(1)" style="text;html=1;align=center;verticalAlign=middle;resizable=0;points=[];autosize=1;" vertex="1" parent="YKjSiL0dgfdWfUoFSutc-1">
                    <mxGeometry x="125" y="240" width="30" height="20" as="geometry"/>
                </mxCell>
                <mxCell id="8XaOAR3oAeh26mqxCNWu-95" value="(2)" style="text;html=1;align=center;verticalAlign=middle;resizable=0;points=[];autosize=1;" vertex="1" parent="YKjSiL0dgfdWfUoFSutc-1">
                    <mxGeometry x="405" y="240" width="30" height="20" as="geometry"/>
                </mxCell>
                <mxCell id="8XaOAR3oAeh26mqxCNWu-96" value="(3)" style="text;html=1;align=center;verticalAlign=middle;resizable=0;points=[];autosize=1;" vertex="1" parent="YKjSiL0dgfdWfUoFSutc-1">
                    <mxGeometry x="125" y="480" width="30" height="20" as="geometry"/>
                </mxCell>
                <mxCell id="8XaOAR3oAeh26mqxCNWu-97" value="(4)" style="text;html=1;align=center;verticalAlign=middle;resizable=0;points=[];autosize=1;" vertex="1" parent="YKjSiL0dgfdWfUoFSutc-1">
                    <mxGeometry x="405" y="480" width="30" height="20" as="geometry"/>
                </mxCell>
            </root>
        </mxGraphModel>
    </diagram>
</mxfile>